<?xml version="1.0" encoding="UTF-8" standalone="no"?><svg xmlns="http://www.w3.org/2000/svg" xmlns:xlink="http://www.w3.org/1999/xlink" contentScriptType="application/ecmascript" contentStyleType="text/css" height="1058px" preserveAspectRatio="none" style="width:732px;height:1058px;background:#FFFFFF;" version="1.1" viewBox="0 0 732 1058" width="732px" zoomAndPan="magnify"><defs><filter height="300%" id="f4kxxwuciifj0" width="300%" x="-1" y="-1"><feGaussianBlur result="blurOut" stdDeviation="2.0"/><feColorMatrix in="blurOut" result="blurOut2" type="matrix" values="0 0 0 0 0 0 0 0 0 0 0 0 0 0 0 0 0 0 .4 0"/><feOffset dx="4.0" dy="4.0" in="blurOut2" result="blurOut3"/><feBlend in="SourceGraphic" in2="blurOut3" mode="normal"/></filter></defs><g><rect fill="#FFA500" filter="url(#f4kxxwuciifj0)" height="37.6094" rx="12.5" ry="12.5" style="stroke:#A80036;stroke-width:1.5;" width="107" x="10" y="509.6797"/><text fill="#000000" font-family="sans-serif" font-size="14" lengthAdjust="spacing" textLength="87" x="20" y="534.2129">Fundamentos</text><rect fill="#00FF00" filter="url(#f4kxxwuciifj0)" height="37.6094" rx="12.5" ry="12.5" style="stroke:#A80036;stroke-width:1.5;" width="83" x="167" y="135.2188"/><text fill="#000000" font-family="sans-serif" font-size="14" lengthAdjust="spacing" textLength="59" x="177" y="159.752">Variables</text><rect fill="#008B8B" filter="url(#f4kxxwuciifj0)" height="37.6094" rx="12.5" ry="12.5" style="stroke:#A80036;stroke-width:1.5;" width="124" x="300" y="135.2188"/><text fill="#000000" font-family="sans-serif" font-size="14" lengthAdjust="spacing" textLength="96" x="310" y="159.752">Tipos de Datos</text><rect fill="#FF7F50" filter="url(#f4kxxwuciifj0)" height="37.6094" rx="12.5" ry="12.5" style="stroke:#A80036;stroke-width:1.5;" width="62" x="474" y="20"/><text fill="#000000" font-family="sans-serif" font-size="14" lengthAdjust="spacing" textLength="42" x="484" y="44.5332">Textos</text><path d="M424,154.0234 L434,154.0234 C449,154.0234 449,38.8047 464,38.8047 L474,38.8047 " fill="none" style="stroke:#A80036;stroke-width:1.0;"/><rect fill="#FF7F50" filter="url(#f4kxxwuciifj0)" height="37.6094" rx="12.5" ry="12.5" style="stroke:#A80036;stroke-width:1.5;" width="80" x="474" y="77.6094"/><text fill="#000000" font-family="sans-serif" font-size="14" lengthAdjust="spacing" textLength="56" x="484" y="102.1426">Números</text><path d="M424,154.0234 L434,154.0234 C449,154.0234 449,96.4141 464,96.4141 L474,96.4141 " fill="none" style="stroke:#A80036;stroke-width:1.0;"/><rect fill="#FF7F50" filter="url(#f4kxxwuciifj0)" height="37.6094" rx="12.5" ry="12.5" style="stroke:#A80036;stroke-width:1.5;" width="95" x="474" y="135.2188"/><text fill="#000000" font-family="sans-serif" font-size="14" lengthAdjust="spacing" textLength="67" x="484" y="159.752">Booleanos</text><path d="M424,154.0234 L434,154.0234 C449,154.0234 449,154.0234 464,154.0234 L474,154.0234 " fill="none" style="stroke:#A80036;stroke-width:1.0;"/><rect fill="#FF7F50" filter="url(#f4kxxwuciifj0)" height="37.6094" rx="12.5" ry="12.5" style="stroke:#A80036;stroke-width:1.5;" width="118" x="474" y="192.8281"/><text fill="#000000" font-family="sans-serif" font-size="14" lengthAdjust="spacing" textLength="90" x="484" y="217.3613">Contenedores</text><rect fill="#9400D3" filter="url(#f4kxxwuciifj0)" height="37.6094" rx="12.5" ry="12.5" style="stroke:#A80036;stroke-width:1.5;" width="61" x="642" y="164.0234"/><text fill="#000000" font-family="sans-serif" font-size="14" lengthAdjust="spacing" textLength="41" x="652" y="188.5566">Arrays</text><path d="M592,211.6328 L602,211.6328 C617,211.6328 617,182.8281 632,182.8281 L642,182.8281 " fill="none" style="stroke:#A80036;stroke-width:1.0;"/><rect fill="#9400D3" filter="url(#f4kxxwuciifj0)" height="37.6094" rx="12.5" ry="12.5" style="stroke:#A80036;stroke-width:1.5;" width="71" x="642" y="221.6328"/><text fill="#000000" font-family="sans-serif" font-size="14" lengthAdjust="spacing" textLength="47" x="652" y="246.166">Hashes</text><path d="M592,211.6328 L602,211.6328 C617,211.6328 617,240.4375 632,240.4375 L642,240.4375 " fill="none" style="stroke:#A80036;stroke-width:1.0;"/><path d="M424,154.0234 L434,154.0234 C449,154.0234 449,211.6328 464,211.6328 L474,211.6328 " fill="none" style="stroke:#A80036;stroke-width:1.0;"/><rect fill="#FF7F50" filter="url(#f4kxxwuciifj0)" height="37.6094" rx="12.5" ry="12.5" style="stroke:#A80036;stroke-width:1.5;" width="75" x="474" y="250.4375"/><text fill="#000000" font-family="sans-serif" font-size="14" lengthAdjust="spacing" textLength="47" x="484" y="274.9707">Fechas</text><path d="M424,154.0234 L434,154.0234 C449,154.0234 449,269.2422 464,269.2422 L474,269.2422 " fill="none" style="stroke:#A80036;stroke-width:1.0;"/><path d="M250,154.0234 L260,154.0234 C275,154.0234 275,154.0234 290,154.0234 L300,154.0234 " fill="none" style="stroke:#A80036;stroke-width:1.0;"/><rect fill="#008B8B" filter="url(#f4kxxwuciifj0)" height="37.6094" rx="12.5" ry="12.5" style="stroke:#A80036;stroke-width:1.5;" width="82" x="300" y="192.8281"/><text fill="#000000" font-family="sans-serif" font-size="14" lengthAdjust="spacing" textLength="50" x="310" y="217.3613">Alcance</text><path d="M250,154.0234 L260,154.0234 C275,154.0234 275,211.6328 290,211.6328 L300,211.6328 " fill="none" style="stroke:#A80036;stroke-width:1.0;"/><path d="M117,528.4844 L127,528.4844 C142,528.4844 142,154.0234 157,154.0234 L167,154.0234 " fill="none" style="stroke:#A80036;stroke-width:1.0;"/><rect fill="#00FF00" filter="url(#f4kxxwuciifj0)" height="37.6094" rx="12.5" ry="12.5" style="stroke:#A80036;stroke-width:1.5;" width="113" x="167" y="365.6563"/><text fill="#000000" font-family="sans-serif" font-size="14" lengthAdjust="spacing" textLength="89" x="177" y="390.1895">Condicionales</text><rect fill="#008B8B" filter="url(#f4kxxwuciifj0)" height="37.6094" rx="12.5" ry="12.5" style="stroke:#A80036;stroke-width:1.5;" width="61" x="330" y="308.0469"/><text fill="#000000" font-family="sans-serif" font-size="14" lengthAdjust="spacing" textLength="37" x="340" y="332.5801">if else</text><path d="M280,384.4609 L290,384.4609 C305,384.4609 305,326.8516 320,326.8516 L330,326.8516 " fill="none" style="stroke:#A80036;stroke-width:1.0;"/><rect fill="#008B8B" filter="url(#f4kxxwuciifj0)" height="37.6094" rx="12.5" ry="12.5" style="stroke:#A80036;stroke-width:1.5;" width="65" x="330" y="365.6563"/><text fill="#000000" font-family="sans-serif" font-size="14" lengthAdjust="spacing" textLength="41" x="340" y="390.1895">unless</text><path d="M280,384.4609 L290,384.4609 C305,384.4609 305,384.4609 320,384.4609 L330,384.4609 " fill="none" style="stroke:#A80036;stroke-width:1.0;"/><rect fill="#008B8B" filter="url(#f4kxxwuciifj0)" height="37.6094" rx="12.5" ry="12.5" style="stroke:#A80036;stroke-width:1.5;" width="78" x="330" y="423.2656"/><text fill="#000000" font-family="sans-serif" font-size="14" lengthAdjust="spacing" textLength="30" x="340" y="447.7988">case</text><path d="M280,384.4609 L290,384.4609 C305,384.4609 305,442.0703 320,442.0703 L330,442.0703 " fill="none" style="stroke:#A80036;stroke-width:1.0;"/><path d="M117,528.4844 L127,528.4844 C142,528.4844 142,384.4609 157,384.4609 L167,384.4609 " fill="none" style="stroke:#A80036;stroke-width:1.0;"/><rect fill="#00FF00" filter="url(#f4kxxwuciifj0)" height="37.6094" rx="12.5" ry="12.5" style="stroke:#A80036;stroke-width:1.5;" width="115" x="167" y="596.0938"/><text fill="#000000" font-family="sans-serif" font-size="14" lengthAdjust="spacing" textLength="95" x="177" y="620.627">Bucles (Loops)</text><rect fill="#008B8B" filter="url(#f4kxxwuciifj0)" height="37.6094" rx="12.5" ry="12.5" style="stroke:#A80036;stroke-width:1.5;" width="55" x="332" y="480.875"/><text fill="#000000" font-family="sans-serif" font-size="14" lengthAdjust="spacing" textLength="31" x="342" y="505.4082">while</text><path d="M282,614.8984 L292,614.8984 C307,614.8984 307,499.6797 322,499.6797 L332,499.6797 " fill="none" style="stroke:#A80036;stroke-width:1.0;"/><rect fill="#008B8B" filter="url(#f4kxxwuciifj0)" height="37.6094" rx="12.5" ry="12.5" style="stroke:#A80036;stroke-width:1.5;" width="67" x="332" y="538.4844"/><text fill="#000000" font-family="sans-serif" font-size="14" lengthAdjust="spacing" textLength="27" x="342" y="563.0176">loop</text><path d="M282,614.8984 L292,614.8984 C307,614.8984 307,557.2891 322,557.2891 L332,557.2891 " fill="none" style="stroke:#A80036;stroke-width:1.0;"/><rect fill="#008B8B" filter="url(#f4kxxwuciifj0)" height="37.6094" rx="12.5" ry="12.5" style="stroke:#A80036;stroke-width:1.5;" width="52" x="332" y="596.0938"/><text fill="#000000" font-family="sans-serif" font-size="14" lengthAdjust="spacing" textLength="28" x="342" y="620.627">upto</text><path d="M282,614.8984 L292,614.8984 C307,614.8984 307,614.8984 322,614.8984 L332,614.8984 " fill="none" style="stroke:#A80036;stroke-width:1.0;"/><rect fill="#008B8B" filter="url(#f4kxxwuciifj0)" height="37.6094" rx="12.5" ry="12.5" style="stroke:#A80036;stroke-width:1.5;" width="51" x="332" y="653.7031"/><text fill="#000000" font-family="sans-serif" font-size="14" lengthAdjust="spacing" textLength="27" x="342" y="678.2363">step</text><path d="M282,614.8984 L292,614.8984 C307,614.8984 307,672.5078 322,672.5078 L332,672.5078 " fill="none" style="stroke:#A80036;stroke-width:1.0;"/><rect fill="#008B8B" filter="url(#f4kxxwuciifj0)" height="37.6094" rx="12.5" ry="12.5" style="stroke:#A80036;stroke-width:1.5;" width="87" x="332" y="711.3125"/><text fill="#000000" font-family="sans-serif" font-size="14" lengthAdjust="spacing" textLength="31" x="342" y="735.8457">each</text><path d="M282,614.8984 L292,614.8984 C307,614.8984 307,730.1172 322,730.1172 L332,730.1172 " fill="none" style="stroke:#A80036;stroke-width:1.0;"/><path d="M117,528.4844 L127,528.4844 C142,528.4844 142,614.8984 157,614.8984 L167,614.8984 " fill="none" style="stroke:#A80036;stroke-width:1.0;"/><rect fill="#00FF00" filter="url(#f4kxxwuciifj0)" height="37.6094" rx="12.5" ry="12.5" style="stroke:#A80036;stroke-width:1.5;" width="59" x="167" y="826.5313"/><text fill="#000000" font-family="sans-serif" font-size="14" lengthAdjust="spacing" textLength="31" x="177" y="851.0645">POO</text><rect fill="#008B8B" filter="url(#f4kxxwuciifj0)" height="37.6094" rx="12.5" ry="12.5" style="stroke:#A80036;stroke-width:1.5;" width="67" x="276" y="797.7266"/><text fill="#000000" font-family="sans-serif" font-size="14" lengthAdjust="spacing" textLength="43" x="286" y="822.2598">Clases</text><rect fill="#FF7F50" filter="url(#f4kxxwuciifj0)" height="37.6094" rx="12.5" ry="12.5" style="stroke:#A80036;stroke-width:1.5;" width="74" x="393" y="768.9219"/><text fill="#000000" font-family="sans-serif" font-size="14" lengthAdjust="spacing" textLength="54" x="403" y="793.4551">Métodos</text><rect fill="#9400D3" filter="url(#f4kxxwuciifj0)" height="37.6094" rx="12.5" ry="12.5" style="stroke:#A80036;stroke-width:1.5;" width="97" x="517" y="768.9219"/><text fill="#000000" font-family="sans-serif" font-size="14" lengthAdjust="spacing" textLength="73" x="527" y="793.4551">Parámetros</text><path d="M467,787.7266 L477,787.7266 C492,787.7266 492,787.7266 507,787.7266 L517,787.7266 " fill="none" style="stroke:#A80036;stroke-width:1.0;"/><path d="M343,816.5313 L353,816.5313 C368,816.5313 368,787.7266 383,787.7266 L393,787.7266 " fill="none" style="stroke:#A80036;stroke-width:1.0;"/><rect fill="#FF7F50" filter="url(#f4kxxwuciifj0)" height="37.6094" rx="12.5" ry="12.5" style="stroke:#A80036;stroke-width:1.5;" width="80" x="393" y="826.5313"/><text fill="#000000" font-family="sans-serif" font-size="14" lengthAdjust="spacing" textLength="56" x="403" y="851.0645">Atributos</text><path d="M343,816.5313 L353,816.5313 C368,816.5313 368,845.3359 383,845.3359 L393,845.3359 " fill="none" style="stroke:#A80036;stroke-width:1.0;"/><path d="M226,845.3359 L236,845.3359 C251,845.3359 251,816.5313 266,816.5313 L276,816.5313 " fill="none" style="stroke:#A80036;stroke-width:1.0;"/><rect fill="#008B8B" filter="url(#f4kxxwuciifj0)" height="37.6094" rx="12.5" ry="12.5" style="stroke:#A80036;stroke-width:1.5;" width="84" x="276" y="884.1406"/><text fill="#000000" font-family="sans-serif" font-size="14" lengthAdjust="spacing" textLength="56" x="286" y="908.6738">Herencia</text><path d="M226,845.3359 L236,845.3359 C251,845.3359 251,902.9453 266,902.9453 L276,902.9453 " fill="none" style="stroke:#A80036;stroke-width:1.0;"/><path d="M117,528.4844 L127,528.4844 C142,528.4844 142,845.3359 157,845.3359 L167,845.3359 " fill="none" style="stroke:#A80036;stroke-width:1.0;"/><rect fill="#00FF00" filter="url(#f4kxxwuciifj0)" height="37.6094" rx="12.5" ry="12.5" style="stroke:#A80036;stroke-width:1.5;" width="96" x="167" y="941.75"/><text fill="#000000" font-family="sans-serif" font-size="14" lengthAdjust="spacing" textLength="68" x="177" y="966.2832">Exceptions</text><path d="M117,528.4844 L127,528.4844 C142,528.4844 142,960.5547 157,960.5547 L167,960.5547 " fill="none" style="stroke:#A80036;stroke-width:1.0;"/><rect fill="#00FF00" filter="url(#f4kxxwuciifj0)" height="37.6094" rx="12.5" ry="12.5" style="stroke:#A80036;stroke-width:1.5;" width="104" x="167" y="999.3594"/><text fill="#000000" font-family="sans-serif" font-size="14" lengthAdjust="spacing" textLength="80" x="177" y="1023.8926">Comentarios</text><path d="M117,528.4844 L127,528.4844 C142,528.4844 142,1018.1641 157,1018.1641 L167,1018.1641 " fill="none" style="stroke:#A80036;stroke-width:1.0;"/><!--MD5=[a2dfd05a07f9b97a05be730f87ef3d17]
@startmindmap 
*[#Orange] Fundamentos
**[#Lime] Variables 
***[#DarkCyan] Tipos de Datos  
****[#Coral] Textos
****[#Coral] Números 
****[#Coral] Booleanos  
****[#Coral] Contenedores  
*****[#DarkViolet] Arrays
*****[#DarkViolet] Hashes 
****[#Coral] Fechas  
***[#DarkCyan] Alcance   
**[#Lime] Condicionales 
***[#DarkCyan] if else 
***[#DarkCyan] unless 
***[#DarkCyan] case       
**[#Lime] Bucles (Loops)
***[#DarkCyan] while 
***[#DarkCyan] loop     
***[#DarkCyan] upto 
***[#DarkCyan] step 
***[#DarkCyan] each         
**[#Lime] POO  
***[#DarkCyan] Clases 
****[#Coral] Métodos
*****[#DarkViolet] Parámetros 
****[#Coral] Atributos 
***[#DarkCyan] Herencia  
**[#Lime] Exceptions  
**[#Lime] Comentarios 
@endmindmap 

PlantUML version 1.2022.0(Tue Jan 11 13:16:42 CLST 2022)
(GPL source distribution)
Java Runtime: Java(TM) SE Runtime Environment
JVM: Java HotSpot(TM) 64-Bit Server VM
Default Encoding: Cp1252
Language: en
Country: US
--></g></svg>