<?xml version="1.0" encoding="UTF-8" standalone="no"?><svg xmlns="http://www.w3.org/2000/svg" xmlns:xlink="http://www.w3.org/1999/xlink" contentScriptType="application/ecmascript" contentStyleType="text/css" height="1147px" preserveAspectRatio="none" style="width:768px;height:1147px;" version="1.1" viewBox="0 0 768 1147" width="768px" zoomAndPan="magnify"><defs><filter height="300%" id="f1xozgehavdwt1" width="300%" x="-1" y="-1"><feGaussianBlur result="blurOut" stdDeviation="2.0"/><feColorMatrix in="blurOut" result="blurOut2" type="matrix" values="0 0 0 0 0 0 0 0 0 0 0 0 0 0 0 0 0 0 .4 0"/><feOffset dx="4.0" dy="4.0" in="blurOut2" result="blurOut3"/><feBlend in="SourceGraphic" in2="blurOut3" mode="normal"/></filter></defs><g><rect fill="#FFA500" filter="url(#f1xozgehavdwt1)" height="36.2969" rx="12.5" ry="12.5" style="stroke:#A80036;stroke-width:1.5;" width="116" x="10" y="554.8203"/><text fill="#000000" font-family="sans-serif" font-size="14" lengthAdjust="spacing" textLength="96" x="20" y="577.8154">Fundamentos</text><rect fill="#00FF00" filter="url(#f1xozgehavdwt1)" height="36.2969" rx="12.5" ry="12.5" style="stroke:#A80036;stroke-width:1.5;" width="86" x="176" y="132.5938"/><text fill="#000000" font-family="sans-serif" font-size="14" lengthAdjust="spacing" textLength="62" x="186" y="155.5889">Variables</text><rect fill="#008B8B" filter="url(#f1xozgehavdwt1)" height="36.2969" rx="12.5" ry="12.5" style="stroke:#A80036;stroke-width:1.5;" width="133" x="312" y="132.5938"/><text fill="#000000" font-family="sans-serif" font-size="14" lengthAdjust="spacing" textLength="105" x="322" y="155.5889">Tipos de Datos</text><rect fill="#FF7F50" filter="url(#f1xozgehavdwt1)" height="36.2969" rx="12.5" ry="12.5" style="stroke:#A80036;stroke-width:1.5;" width="67" x="495" y="20"/><text fill="#000000" font-family="sans-serif" font-size="14" lengthAdjust="spacing" textLength="47" x="505" y="42.9951">Textos</text><path d="M445,150.7422 L455,150.7422 C470,150.7422 470,38.1484 485,38.1484 L495,38.1484 " fill="none" style="stroke:#A80036;stroke-width:1.0;"/><rect fill="#FF7F50" filter="url(#f1xozgehavdwt1)" height="36.2969" rx="12.5" ry="12.5" style="stroke:#A80036;stroke-width:1.5;" width="87" x="495" y="76.2969"/><text fill="#000000" font-family="sans-serif" font-size="14" lengthAdjust="spacing" textLength="63" x="505" y="99.292">Números</text><path d="M445,150.7422 L455,150.7422 C470,150.7422 470,94.4453 485,94.4453 L495,94.4453 " fill="none" style="stroke:#A80036;stroke-width:1.0;"/><rect fill="#FF7F50" filter="url(#f1xozgehavdwt1)" height="36.2969" rx="12.5" ry="12.5" style="stroke:#A80036;stroke-width:1.5;" width="102" x="495" y="132.5938"/><text fill="#000000" font-family="sans-serif" font-size="14" lengthAdjust="spacing" textLength="74" x="505" y="155.5889">Booleanos</text><path d="M445,150.7422 L455,150.7422 C470,150.7422 470,150.7422 485,150.7422 L495,150.7422 " fill="none" style="stroke:#A80036;stroke-width:1.0;"/><rect fill="#FF7F50" filter="url(#f1xozgehavdwt1)" height="36.2969" rx="12.5" ry="12.5" style="stroke:#A80036;stroke-width:1.5;" width="128" x="495" y="188.8906"/><text fill="#000000" font-family="sans-serif" font-size="14" lengthAdjust="spacing" textLength="100" x="505" y="211.8857">Contenedores</text><rect fill="#9400D3" filter="url(#f1xozgehavdwt1)" height="36.2969" rx="12.5" ry="12.5" style="stroke:#A80036;stroke-width:1.5;" width="62" x="673" y="160.7422"/><text fill="#000000" font-family="sans-serif" font-size="14" lengthAdjust="spacing" textLength="42" x="683" y="183.7373">Arrays</text><path d="M623,207.0391 L633,207.0391 C648,207.0391 648,178.8906 663,178.8906 L673,178.8906 " fill="none" style="stroke:#A80036;stroke-width:1.0;"/><rect fill="#9400D3" filter="url(#f1xozgehavdwt1)" height="36.2969" rx="12.5" ry="12.5" style="stroke:#A80036;stroke-width:1.5;" width="76" x="673" y="217.0391"/><text fill="#000000" font-family="sans-serif" font-size="14" lengthAdjust="spacing" textLength="52" x="683" y="240.0342">Hashes</text><path d="M623,207.0391 L633,207.0391 C648,207.0391 648,235.1875 663,235.1875 L673,235.1875 " fill="none" style="stroke:#A80036;stroke-width:1.0;"/><path d="M445,150.7422 L455,150.7422 C470,150.7422 470,207.0391 485,207.0391 L495,207.0391 " fill="none" style="stroke:#A80036;stroke-width:1.0;"/><rect fill="#FF7F50" filter="url(#f1xozgehavdwt1)" height="36.2969" rx="12.5" ry="12.5" style="stroke:#A80036;stroke-width:1.5;" width="78" x="495" y="245.1875"/><text fill="#000000" font-family="sans-serif" font-size="14" lengthAdjust="spacing" textLength="50" x="505" y="268.1826">Fechas</text><path d="M445,150.7422 L455,150.7422 C470,150.7422 470,263.3359 485,263.3359 L495,263.3359 " fill="none" style="stroke:#A80036;stroke-width:1.0;"/><path d="M262,150.7422 L272,150.7422 C287,150.7422 287,150.7422 302,150.7422 L312,150.7422 " fill="none" style="stroke:#A80036;stroke-width:1.0;"/><rect fill="#008B8B" filter="url(#f1xozgehavdwt1)" height="36.2969" rx="12.5" ry="12.5" style="stroke:#A80036;stroke-width:1.5;" width="86" x="312" y="188.8906"/><text fill="#000000" font-family="sans-serif" font-size="14" lengthAdjust="spacing" textLength="54" x="322" y="211.8857">Alcance</text><path d="M262,150.7422 L272,150.7422 C287,150.7422 287,207.0391 302,207.0391 L312,207.0391 " fill="none" style="stroke:#A80036;stroke-width:1.0;"/><path d="M126,572.9688 L136,572.9688 C151,572.9688 151,150.7422 166,150.7422 L176,150.7422 " fill="none" style="stroke:#A80036;stroke-width:1.0;"/><rect fill="#00FF00" filter="url(#f1xozgehavdwt1)" height="36.2969" rx="12.5" ry="12.5" style="stroke:#A80036;stroke-width:1.5;" width="121" x="176" y="357.7813"/><text fill="#000000" font-family="sans-serif" font-size="14" lengthAdjust="spacing" textLength="97" x="186" y="380.7764">Condicionales</text><rect fill="#008B8B" filter="url(#f1xozgehavdwt1)" height="36.2969" rx="12.5" ry="12.5" style="stroke:#A80036;stroke-width:1.5;" width="64" x="347" y="301.4844"/><text fill="#000000" font-family="sans-serif" font-size="14" lengthAdjust="spacing" textLength="40" x="357" y="324.4795">if else</text><path d="M297,375.9297 L307,375.9297 C322,375.9297 322,319.6328 337,319.6328 L347,319.6328 " fill="none" style="stroke:#A80036;stroke-width:1.0;"/><rect fill="#008B8B" filter="url(#f1xozgehavdwt1)" height="36.2969" rx="12.5" ry="12.5" style="stroke:#A80036;stroke-width:1.5;" width="70" x="347" y="357.7813"/><text fill="#000000" font-family="sans-serif" font-size="14" lengthAdjust="spacing" textLength="46" x="357" y="380.7764">unless</text><path d="M297,375.9297 L307,375.9297 C322,375.9297 322,375.9297 337,375.9297 L347,375.9297 " fill="none" style="stroke:#A80036;stroke-width:1.0;"/><rect fill="#008B8B" filter="url(#f1xozgehavdwt1)" height="36.2969" rx="12.5" ry="12.5" style="stroke:#A80036;stroke-width:1.5;" width="81" x="347" y="414.0781"/><text fill="#000000" font-family="sans-serif" font-size="14" lengthAdjust="spacing" textLength="33" x="357" y="437.0732">case</text><path d="M297,375.9297 L307,375.9297 C322,375.9297 322,432.2266 337,432.2266 L347,432.2266 " fill="none" style="stroke:#A80036;stroke-width:1.0;"/><path d="M126,572.9688 L136,572.9688 C151,572.9688 151,375.9297 166,375.9297 L176,375.9297 " fill="none" style="stroke:#A80036;stroke-width:1.0;"/><rect fill="#00FF00" filter="url(#f1xozgehavdwt1)" height="36.2969" rx="12.5" ry="12.5" style="stroke:#A80036;stroke-width:1.5;" width="123" x="176" y="582.9688"/><text fill="#000000" font-family="sans-serif" font-size="14" lengthAdjust="spacing" textLength="103" x="186" y="605.9639">Bucles (Loops)</text><rect fill="#008B8B" filter="url(#f1xozgehavdwt1)" height="36.2969" rx="12.5" ry="12.5" style="stroke:#A80036;stroke-width:1.5;" width="59" x="349" y="470.375"/><text fill="#000000" font-family="sans-serif" font-size="14" lengthAdjust="spacing" textLength="35" x="359" y="493.3701">while</text><path d="M299,601.1172 L309,601.1172 C324,601.1172 324,488.5234 339,488.5234 L349,488.5234 " fill="none" style="stroke:#A80036;stroke-width:1.0;"/><rect fill="#008B8B" filter="url(#f1xozgehavdwt1)" height="36.2969" rx="12.5" ry="12.5" style="stroke:#A80036;stroke-width:1.5;" width="70" x="349" y="526.6719"/><text fill="#000000" font-family="sans-serif" font-size="14" lengthAdjust="spacing" textLength="30" x="359" y="549.667">loop</text><path d="M299,601.1172 L309,601.1172 C324,601.1172 324,544.8203 339,544.8203 L349,544.8203 " fill="none" style="stroke:#A80036;stroke-width:1.0;"/><rect fill="#008B8B" filter="url(#f1xozgehavdwt1)" height="36.2969" rx="12.5" ry="12.5" style="stroke:#A80036;stroke-width:1.5;" width="56" x="349" y="582.9688"/><text fill="#000000" font-family="sans-serif" font-size="14" lengthAdjust="spacing" textLength="32" x="359" y="605.9639">upto</text><path d="M299,601.1172 L309,601.1172 C324,601.1172 324,601.1172 339,601.1172 L349,601.1172 " fill="none" style="stroke:#A80036;stroke-width:1.0;"/><rect fill="#008B8B" filter="url(#f1xozgehavdwt1)" height="36.2969" rx="12.5" ry="12.5" style="stroke:#A80036;stroke-width:1.5;" width="55" x="349" y="639.2656"/><text fill="#000000" font-family="sans-serif" font-size="14" lengthAdjust="spacing" textLength="31" x="359" y="662.2607">step</text><path d="M299,601.1172 L309,601.1172 C324,601.1172 324,657.4141 339,657.4141 L349,657.4141 " fill="none" style="stroke:#A80036;stroke-width:1.0;"/><rect fill="#008B8B" filter="url(#f1xozgehavdwt1)" height="36.2969" rx="12.5" ry="12.5" style="stroke:#A80036;stroke-width:1.5;" width="90" x="349" y="695.5625"/><text fill="#000000" font-family="sans-serif" font-size="14" lengthAdjust="spacing" textLength="34" x="359" y="718.5576">each</text><path d="M299,601.1172 L309,601.1172 C324,601.1172 324,713.7109 339,713.7109 L349,713.7109 " fill="none" style="stroke:#A80036;stroke-width:1.0;"/><path d="M126,572.9688 L136,572.9688 C151,572.9688 151,601.1172 166,601.1172 L176,601.1172 " fill="none" style="stroke:#A80036;stroke-width:1.0;"/><rect fill="#00FF00" filter="url(#f1xozgehavdwt1)" height="36.2969" rx="12.5" ry="12.5" style="stroke:#A80036;stroke-width:1.5;" width="59" x="176" y="864.4531"/><text fill="#000000" font-family="sans-serif" font-size="14" lengthAdjust="spacing" textLength="31" x="186" y="887.4482">POO</text><rect fill="#008B8B" filter="url(#f1xozgehavdwt1)" height="36.2969" rx="12.5" ry="12.5" style="stroke:#A80036;stroke-width:1.5;" width="70" x="285" y="780.0078"/><text fill="#000000" font-family="sans-serif" font-size="14" lengthAdjust="spacing" textLength="46" x="295" y="803.0029">Clases</text><rect fill="#FF7F50" filter="url(#f1xozgehavdwt1)" height="36.2969" rx="12.5" ry="12.5" style="stroke:#A80036;stroke-width:1.5;" width="86" x="405" y="751.8594"/><text fill="#000000" font-family="sans-serif" font-size="14" lengthAdjust="spacing" textLength="62" x="415" y="774.8545">Atributos</text><path d="M355,798.1563 L365,798.1563 C380,798.1563 380,770.0078 395,770.0078 L405,770.0078 " fill="none" style="stroke:#A80036;stroke-width:1.0;"/><rect fill="#FF7F50" filter="url(#f1xozgehavdwt1)" height="36.2969" rx="12.5" ry="12.5" style="stroke:#A80036;stroke-width:1.5;" width="93" x="405" y="808.1563"/><text fill="#000000" font-family="sans-serif" font-size="14" lengthAdjust="spacing" textLength="69" x="415" y="831.1514">Instancias</text><path d="M355,798.1563 L365,798.1563 C380,798.1563 380,826.3047 395,826.3047 L405,826.3047 " fill="none" style="stroke:#A80036;stroke-width:1.0;"/><path d="M235,882.6016 L245,882.6016 C260,882.6016 260,798.1563 275,798.1563 L285,798.1563 " fill="none" style="stroke:#A80036;stroke-width:1.0;"/><rect fill="#008B8B" filter="url(#f1xozgehavdwt1)" height="36.2969" rx="12.5" ry="12.5" style="stroke:#A80036;stroke-width:1.5;" width="100" x="285" y="864.4531"/><text fill="#000000" font-family="sans-serif" font-size="14" lengthAdjust="spacing" textLength="68" x="295" y="887.4482">Interfaces</text><path d="M235,882.6016 L245,882.6016 C260,882.6016 260,882.6016 275,882.6016 L285,882.6016 " fill="none" style="stroke:#A80036;stroke-width:1.0;"/><rect fill="#008B8B" filter="url(#f1xozgehavdwt1)" height="36.2969" rx="12.5" ry="12.5" style="stroke:#A80036;stroke-width:1.5;" width="89" x="285" y="920.75"/><text fill="#000000" font-family="sans-serif" font-size="14" lengthAdjust="spacing" textLength="61" x="295" y="943.7451">Métodos</text><rect fill="#FF7F50" filter="url(#f1xozgehavdwt1)" height="36.2969" rx="12.5" ry="12.5" style="stroke:#A80036;stroke-width:1.5;" width="103" x="424" y="920.75"/><text fill="#000000" font-family="sans-serif" font-size="14" lengthAdjust="spacing" textLength="79" x="434" y="943.7451">Parámetros</text><path d="M374,938.8984 L384,938.8984 C399,938.8984 399,938.8984 414,938.8984 L424,938.8984 " fill="none" style="stroke:#A80036;stroke-width:1.0;"/><path d="M235,882.6016 L245,882.6016 C260,882.6016 260,938.8984 275,938.8984 L285,938.8984 " fill="none" style="stroke:#A80036;stroke-width:1.0;"/><rect fill="#008B8B" filter="url(#f1xozgehavdwt1)" height="36.2969" rx="12.5" ry="12.5" style="stroke:#A80036;stroke-width:1.5;" width="89" x="285" y="977.0469"/><text fill="#000000" font-family="sans-serif" font-size="14" lengthAdjust="spacing" textLength="61" x="295" y="1000.042">Herencia</text><path d="M235,882.6016 L245,882.6016 C260,882.6016 260,995.1953 275,995.1953 L285,995.1953 " fill="none" style="stroke:#A80036;stroke-width:1.0;"/><path d="M126,572.9688 L136,572.9688 C151,572.9688 151,882.6016 166,882.6016 L176,882.6016 " fill="none" style="stroke:#A80036;stroke-width:1.0;"/><rect fill="#00FF00" filter="url(#f1xozgehavdwt1)" height="36.2969" rx="12.5" ry="12.5" style="stroke:#A80036;stroke-width:1.5;" width="104" x="176" y="1033.3438"/><text fill="#000000" font-family="sans-serif" font-size="14" lengthAdjust="spacing" textLength="76" x="186" y="1056.3389">Exceptions</text><path d="M126,572.9688 L136,572.9688 C151,572.9688 151,1051.4922 166,1051.4922 L176,1051.4922 " fill="none" style="stroke:#A80036;stroke-width:1.0;"/><rect fill="#00FF00" filter="url(#f1xozgehavdwt1)" height="36.2969" rx="12.5" ry="12.5" style="stroke:#A80036;stroke-width:1.5;" width="112" x="176" y="1089.6406"/><text fill="#000000" font-family="sans-serif" font-size="14" lengthAdjust="spacing" textLength="88" x="186" y="1112.6357">Comentarios</text><path d="M126,572.9688 L136,572.9688 C151,572.9688 151,1107.7891 166,1107.7891 L176,1107.7891 " fill="none" style="stroke:#A80036;stroke-width:1.0;"/><!--MD5=[d942b4a08ef0c06312033033e22d1fc9]
@startmindmap 
*[#Orange] Fundamentos
**[#Lime] Variables 
***[#DarkCyan] Tipos de Datos  
****[#Coral] Textos
****[#Coral] Números 
****[#Coral] Booleanos  
****[#Coral] Contenedores  
*****[#DarkViolet] Arrays
*****[#DarkViolet] Hashes 
****[#Coral] Fechas  
***[#DarkCyan] Alcance   
**[#Lime] Condicionales 
***[#DarkCyan] if else 
***[#DarkCyan] unless 
***[#DarkCyan] case       
**[#Lime] Bucles (Loops)
***[#DarkCyan] while 
***[#DarkCyan] loop     
***[#DarkCyan] upto 
***[#DarkCyan] step 
***[#DarkCyan] each         
**[#Lime] POO  
***[#DarkCyan] Clases 
****[#Coral] Atributos 
****[#Coral] Instancias 
***[#DarkCyan] Interfaces   
***[#DarkCyan] Métodos  
****[#Coral] Parámetros 
***[#DarkCyan] Herencia  
**[#Lime] Exceptions  
**[#Lime] Comentarios 
@endmindmap

PlantUML version 1.2021.00(Sun Jan 10 07:25:05 CLST 2021)
(MIT source distribution)
Java Runtime: OpenJDK Runtime Environment
JVM: OpenJDK 64-Bit Server VM
Default Encoding: UTF-8
Language: en
Country: US
--></g></svg>